<svg width="200" height="40" viewBox="0 0 240 40" fill="none" xmlns="http://www.w3.org/2000/svg">
    <!-- Original Logo -->
    <g>
        <path d="M32.1894 0.264049L4.29856 8.61184C-0.158829 9.94621 -1.48282 15.5467 1.91592 18.6931L23.1803 38.3789C26.579 41.5254 32.1505 39.8576 33.2101 35.3768L39.8356 7.34324C40.8943 2.86246 36.6468 -1.07032 32.1894 0.264049Z" fill="url(#paint0_linear_1_1373)"/>
        <path d="M32.1898 0.264049L18.2518 4.43612C7.59331 7.62637 4.42755 21.0185 12.5537 28.5424L23.1798 38.3799C26.5786 41.5263 32.1501 39.8585 33.2097 35.3778L39.8361 7.34324C40.8947 2.86246 36.6472 -1.07032 32.1898 0.264049Z" fill="url(#paint1_linear_1_1373)" fill-opacity="0.6"/>
        <path d="M32.1891 0.264049C15.3359 5.30835 10.3302 26.4838 23.1791 38.3789C26.5778 41.5254 32.1493 39.8576 33.2089 35.3768L39.8353 7.34324C40.894 2.86246 36.6465 -1.07032 32.1891 0.264049Z" fill="url(#paint2_linear_1_1373)" fill-opacity="0.6"/>
    </g>

    <!-- QuickLocum Text -->
    <text x="50" y="30" font-size="30" font-weight="bold" fill="white" font-family="Arial, sans-serif">QuickLocum</text>

    <defs>
        <linearGradient id="paint0_linear_1_1373" x1="-0.000723252" y1="12.878" x2="36.3408" y2="20.8716" gradientUnits="userSpaceOnUse">
            <stop offset="0.369792" stop-color="#F7578C"/>
            <stop offset="1" stop-color="#0095FF"/>
        </linearGradient>
        <linearGradient id="paint1_linear_1_1373" x1="7.97203" y1="12.8783" x2="37.5606" y2="18.0893" gradientUnits="userSpaceOnUse">
            <stop stop-color="white"/>
            <stop offset="1" stop-color="#0095FF"/>
        </linearGradient>
        <linearGradient id="paint2_linear_1_1373" x1="15.935" y1="12.878" x2="38.4614" y2="15.8588" gradientUnits="userSpaceOnUse">
            <stop stop-color="white"/>
            <stop offset="1" stop-color="#0095FF"/>
        </linearGradient>
    </defs>
</svg>
