<?xml version="1.0" encoding="UTF-8"?>
<svg width="800px" height="800px" viewBox="0 0 6.3500002 6.3500002" xmlns="http://www.w3.org/2000/svg">
    <g fill="#1E88E5">
        <path d="m 0.26485,5.8204456 a 0.2645835,0.2645835 0 0 0 -0.26563,0.26563 0.2645835,0.2645835 0 0 0 0.26563,0.26367 h 5.82031 a 0.2645835,0.2645835 0 0 0 0.26562,-0.26367 0.2645835,0.2645835 0 0 0 -0.26562,-0.26563 z"/>
        <path d="m 1.16328,3.9688856 c -0.34722,0 -0.63476,0.28754 -0.63476,0.63477 v 1.48242 a 0.26460996,0.26460996 0 0 0 0.26562,0.26367 h 1.0586 a 0.26460996,0.26460996 0 0 0 0.26367,-0.26367 v -1.48242 c 0,-0.34723 -0.28755,-0.63477 -0.63477,-0.63477 z"/>
        <path d="m 3.0168,3.0684956 c -0.34722,0 -0.63477,0.28753 -0.63477,0.63477 v 2.38281 a 0.26460996,0.26460996 0 0 0 0.26367,0.26367 h 1.0586 a 0.26460996,0.26460996 0 0 0 0.26367,-0.26367 v -2.38281 c 0,-0.34724 -0.28755,-0.63477 -0.63477,-0.63477 z"/>
        <path d="m 4.86836,2.2755256 c -0.34722,0 -0.63477,0.28754 -0.63477,0.63477 v 3.17578 a 0.26460996,0.26460996 0 0 0 0.26368,0.26367 h 1.05859 a 0.26460996,0.26460996 0 0 0 0.26563,-0.26367 v -3.17578 c 0,-0.34723 -0.2895,-0.63477 -0.63672,-0.63477 z"/>
        <path d="M 4.6205208,2.5237e-4 A 0.2645835,0.2645835 0 0 0 4.3564534,0.26380219 0.2645835,0.2645835 0 0 0 4.6205208,0.52941905 H 4.8938883 C 3.3974791,1.8159538 1.8306324,2.6151331 0.2161369,2.9142865 A 0.2645835,0.2645835 0 0 0 0.0052984,3.2227949 0.2645835,0.2645835 0 0 0 0.3117388,3.4357016 C 2.050091,3.1136013 3.722697,2.2498105 5.2923138,0.88753671 V 1.1991456 A 0.2645835,0.2645835 0 0 0 5.5558626,1.4647625 0.2645835,0.2645835 0 0 0 5.8214805,1.1991456 V 0.41986501 C 5.8215308,0.19150501 5.62816,2.0237e-4 5.3998008,2.5237e-4 Z"/>
    </g>
</svg>
